<svg width="54" height="50" viewBox="0 0 54 50" fill="current" xmlns="http://www.w3.org/2000/svg">
<path d="M45.816 8.74668H40.4401C38.9586 8.74668 37.7521 9.95313 37.7521 11.4346C37.7521 12.9162 38.9586 14.1226 40.4401 14.1226H45.816C47.2975 14.1226 48.504 15.329 48.504 16.8106V41.0023C48.504 42.4838 47.2975 43.6903 45.816 43.6903H8.18398C6.70246 43.6903 5.49601 42.4838 5.49601 41.0023V16.8106C5.49601 15.329 6.70246 14.1226 8.18398 14.1226H17.8248L14.3537 17.5937C13.306 18.6414 13.306 20.3452 14.3537 21.3929C14.8828 21.922 16.8723 22.6734 18.1529 21.3929L26.2169 13.3289C27.2645 12.2813 27.2645 10.5774 26.2169 9.52972L18.1529 1.46574C17.1052 0.418076 15.4013 0.418076 14.3537 1.46574C13.306 2.51341 13.306 4.21727 14.3537 5.26494L17.8248 8.73604H8.18398C3.72868 8.74662 0.119995 12.3553 0.119995 16.8106V41.0023C0.119995 45.4576 3.72868 49.0663 8.18398 49.0663H45.816C50.2713 49.0663 53.88 45.4576 53.88 41.0023V16.8106C53.88 12.3553 50.2713 8.74659 45.816 8.74659V8.74668Z" fill="black"/>
</svg>
