<svg width="54" height="54" viewBox="0 0 54 54" fill="current" xmlns="http://www.w3.org/2000/svg">
<path d="M2.36019 11.3203H9.39926C10.0547 13.9008 11.8294 16.0535 14.2371 17.1891C16.6453 18.3246 19.4348 18.3246 21.843 17.1891C24.2508 16.0536 26.0254 13.9008 26.6809 11.3203H51.6398C52.4402 11.3203 53.1796 10.8933 53.58 10.2004C53.98 9.50742 53.98 8.65349 53.58 7.96059C53.1796 7.26723 52.4402 6.8403 51.6398 6.8403H26.6809C26.0254 4.25981 24.2508 2.10751 21.843 0.971917C19.4348 -0.163979 16.6453 -0.163979 14.2371 0.971917C11.8294 2.10741 10.0548 4.25981 9.39926 6.8403H2.36019C1.5598 6.8403 0.820393 7.26724 0.419994 7.96059C0.0199955 8.65356 0.0199955 9.50749 0.419994 10.2004C0.820383 10.8934 1.55979 11.3203 2.36019 11.3203ZM18.0401 4.6004C19.2284 4.6004 20.3678 5.07228 21.2081 5.9125C22.0484 6.75272 22.5202 7.89219 22.5202 9.08049C22.5202 10.2688 22.0483 11.4082 21.2081 12.2481C20.3679 13.0883 19.2284 13.5606 18.0401 13.5606C16.8522 13.5606 15.7128 13.0883 14.8725 12.2481C14.0323 11.4082 13.5604 10.2688 13.5604 9.08049C13.5604 7.89219 14.0323 6.7528 14.8725 5.9125C15.7128 5.0722 16.8522 4.6004 18.0401 4.6004Z" fill="black"/>
<path d="M2.36019 29.2402H27.3191C27.9746 31.8207 29.7492 33.9734 32.157 35.109C34.5652 36.2445 37.3547 36.2445 39.7629 35.109C42.1706 33.9735 43.9452 31.8207 44.6007 29.2402H51.6398C52.4402 29.2402 53.1796 28.8133 53.58 28.1203C53.98 27.4273 53.98 26.5734 53.58 25.8805C53.1796 25.1875 52.4402 24.7606 51.6398 24.7606H44.6007C43.9453 22.1801 42.1706 20.0274 39.7629 18.8918C37.3547 17.7563 34.5652 17.7563 32.157 18.8918C29.7492 20.0273 27.9746 22.1801 27.3191 24.7606H2.36019C1.5598 24.7606 0.820393 25.1876 0.419994 25.8805C0.0199955 26.5735 0.0199955 27.4274 0.419994 28.1203C0.820383 28.8133 1.55979 29.2402 2.36019 29.2402ZM35.9601 22.5203C37.148 22.5203 38.2874 22.9926 39.1277 23.8324C39.9679 24.6727 40.4398 25.8121 40.4398 27.0004C40.4398 28.1887 39.9679 29.3281 39.1277 30.1684C38.2874 31.0082 37.148 31.4805 35.9601 31.4805C34.7718 31.4805 33.6324 31.0082 32.7921 30.1684C31.9519 29.3282 31.48 28.1887 31.48 27.0004C31.48 25.8121 31.9519 24.6727 32.7921 23.8324C33.6323 22.9926 34.7718 22.5203 35.9601 22.5203Z" fill="black"/>
<path d="M2.36019 47.1602H9.39926C10.0547 49.7407 11.8294 51.8929 14.2371 53.0285C16.6453 54.1644 19.4348 54.1644 21.843 53.0285C24.2508 51.893 26.0254 49.7407 26.6809 47.1602H51.6398C52.4402 47.1602 53.1796 46.7332 53.58 46.0399C53.98 45.3469 53.98 44.493 53.58 43.8001C53.1796 43.1071 52.4402 42.6802 51.6398 42.6802H26.6809C26.0254 40.0997 24.2508 37.947 21.843 36.8114C19.4348 35.6759 16.6453 35.6759 14.2371 36.8114C11.8294 37.9469 10.0548 40.0997 9.39926 42.6802H2.36019C1.5598 42.6802 0.820393 43.1071 0.419994 43.8001C0.0199955 44.493 0.0199955 45.347 0.419994 46.0399C0.820383 46.7332 1.55979 47.1602 2.36019 47.1602ZM18.0401 40.4399C19.2284 40.4399 20.3678 40.9122 21.2081 41.7524C22.0483 42.5922 22.5202 43.7317 22.5202 44.92C22.5202 46.1083 22.0483 47.2477 21.2081 48.088C20.3679 48.9283 19.2284 49.4001 18.0401 49.4001C16.8522 49.4001 15.7128 48.9282 14.8725 48.088C14.0322 47.2477 13.5604 46.1083 13.5604 44.92C13.5604 43.7317 14.0323 42.5923 14.8725 41.7524C15.7128 40.9122 16.8522 40.4399 18.0401 40.4399Z" fill="black"/>
</svg>
